<?xml version="1.0" encoding="UTF-8" standalone="no"?>
<!-- Created with Inkscape (http://www.inkscape.org/) -->

<svg
   xmlns:dc="http://purl.org/dc/elements/1.1/"
   xmlns:cc="http://creativecommons.org/ns#"
   xmlns:rdf="http://www.w3.org/1999/02/22-rdf-syntax-ns#"
   xmlns:svg="http://www.w3.org/2000/svg"
   xmlns="http://www.w3.org/2000/svg"
   xmlns:sodipodi="http://sodipodi.sourceforge.net/DTD/sodipodi-0.dtd"
   xmlns:inkscape="http://www.inkscape.org/namespaces/inkscape"
   width="60.508343mm"
   height="84.370796mm"
   id="svg2"
   version="1.1"
   inkscape:version="0.91 r"
   sodipodi:docname="salaPiloto2.svg">
  <sodipodi:namedview
     id="base"
     pagecolor="#ffffff"
     bordercolor="#666666"
     borderopacity="1.0"
     inkscape:pageopacity="0.0"
     inkscape:pageshadow="2"
     inkscape:zoom="0.66231452"
     inkscape:cx="232.59514"
     inkscape:cy="149.39482"
     inkscape:document-units="px"
     inkscape:current-layer="layer2"
     showgrid="false"
     fit-margin-top="0"
     fit-margin-left="0"
     fit-margin-right="0"
     fit-margin-bottom="0"
     inkscape:window-width="1366"
     inkscape:window-height="717"
     inkscape:window-x="0"
     inkscape:window-y="25"
     inkscape:window-maximized="1" />
  <defs
     id="defs4">
    <inkscape:path-effect
       is_visible="true"
       id="path-effect4969"
       effect="spiro" />
    <inkscape:path-effect
       effect="spiro"
       id="path-effect4965"
       is_visible="true" />
    <inkscape:path-effect
       effect="spiro"
       id="path-effect4961"
       is_visible="true" />
    <inkscape:path-effect
       is_visible="true"
       id="path-effect4957"
       effect="spiro" />
    <inkscape:path-effect
       is_visible="true"
       id="path-effect4953"
       effect="spiro" />
    <inkscape:path-effect
       is_visible="true"
       id="path-effect4949"
       effect="spiro" />
    <inkscape:path-effect
       is_visible="true"
       id="path-effect4945"
       effect="spiro" />
    <inkscape:path-effect
       is_visible="true"
       id="path-effect4863"
       effect="spiro" />
    <inkscape:path-effect
       is_visible="true"
       id="path-effect4859"
       effect="spiro" />
    <inkscape:path-effect
       is_visible="true"
       id="path-effect4855"
       effect="spiro" />
    <inkscape:path-effect
       effect="spiro"
       id="path-effect4851"
       is_visible="true" />
    <inkscape:path-effect
       effect="spiro"
       id="path-effect4847"
       is_visible="true" />
    <inkscape:path-effect
       is_visible="true"
       id="path-effect4843"
       effect="spiro" />
    <inkscape:path-effect
       is_visible="true"
       id="path-effect4839"
       effect="spiro" />
  </defs>
  <metadata
     id="metadata7">
    <rdf:RDF>
      <cc:Work
         rdf:about="">
        <dc:format>image/svg+xml</dc:format>
        <dc:type
           rdf:resource="http://purl.org/dc/dcmitype/StillImage" />
        <dc:title></dc:title>
      </cc:Work>
    </rdf:RDF>
  </metadata>
  <g
     inkscape:label="Camada 2"
     id="layer2"
     inkscape:groupmode="layer">
    <path
       transform="matrix(0.999067,0.000000,0.000000,0.999067,-449.517439,-221.258403)"
       id="rect4739"
       d="m 449.93723,221.46503 214.39964,0 0,298.95163 -214.39964,0 z"
       style="opacity:1;stroke-linejoin:miter;stroke-opacity:1;fill-opacity:0.81097562;stroke-dashoffset:0;stroke:none;stroke-linecap:round;stroke-miterlimit:4;stroke-dasharray:none;stroke-width:10.00599957;fill:#d2eee1" />
    <path
       transform="matrix(0.999067,0.000000,0.000000,0.999067,-449.517439,-221.258403)"
       id="rect4741"
       d="m 468.05557,253.17203 181.1828,0 0,10.56899 -181.1828,0 z"
       style="opacity:1;stroke-linejoin:miter;stroke-opacity:1;fill-opacity:1;stroke-dashoffset:0;stroke:none;stroke-linecap:round;stroke-miterlimit:4;stroke-dasharray:none;stroke-width:10.00599957;fill:#d7e3f4" />
    <path
       transform="matrix(0.999067,0.000000,0.000000,0.999067,-449.517439,-221.258403)"
       id="rect4743"
       d="m 468.05557,273.17203 181.1828,0 0,10.56899 -181.1828,0 z"
       style="opacity:1;stroke-linejoin:miter;stroke-opacity:1;fill-opacity:1;stroke-dashoffset:0;stroke:none;stroke-linecap:round;stroke-miterlimit:4;stroke-dasharray:none;stroke-width:10.00599957;fill:#afdde9" />
    <path
       transform="matrix(0.999067,0.000000,0.000000,0.999067,-449.517439,-221.258403)"
       id="rect4745"
       d="m 468.05557,293.17203 10.569,0 0,10.56899 -10.569,0 z"
       style="opacity:1;stroke-linejoin:miter;stroke-opacity:1;fill-opacity:1;stroke-dashoffset:0;stroke:none;stroke-linecap:round;stroke-miterlimit:4;stroke-dasharray:none;stroke-width:10.00599957;fill:#8d5fd3" />
    <path
       transform="matrix(0.999067,0.000000,0.000000,0.999067,-449.517439,-221.258403)"
       id="rect4747"
       d="m 488.05557,293.17203 10.569,0 0,10.56899 -10.569,0 z"
       style="opacity:1;stroke-linejoin:miter;stroke-opacity:1;fill-opacity:1;stroke-dashoffset:0;stroke:none;stroke-linecap:round;stroke-miterlimit:4;stroke-dasharray:none;stroke-width:10.00599957;fill:#8d5fd3" />
    <path
       transform="matrix(0.999067,0.000000,0.000000,0.999067,-449.517439,-221.258403)"
       id="rect4749"
       d="m 508.05557,293.17203 10.569,0 0,10.56899 -10.569,0 z"
       style="opacity:1;stroke-linejoin:miter;stroke-opacity:1;fill-opacity:1;stroke-dashoffset:0;stroke:none;stroke-linecap:round;stroke-miterlimit:4;stroke-dasharray:none;stroke-width:10.00599957;fill:#8d5fd3" />
    <path
       transform="matrix(0.999067,0.000000,0.000000,0.999067,-449.517439,-221.258403)"
       id="rect4751"
       d="m 528.05554,293.17203 10.569,0 0,10.56899 -10.569,0 z"
       style="opacity:1;stroke-linejoin:miter;stroke-opacity:1;fill-opacity:1;stroke-dashoffset:0;stroke:none;stroke-linecap:round;stroke-miterlimit:4;stroke-dasharray:none;stroke-width:10.00599957;fill:#8d5fd3" />
    <path
       transform="matrix(0.999067,0.000000,0.000000,0.999067,-449.517439,-221.258403)"
       id="rect4753"
       d="m 548.05554,293.17203 10.569,0 0,10.56899 -10.569,0 z"
       style="opacity:1;stroke-linejoin:miter;stroke-opacity:1;fill-opacity:1;stroke-dashoffset:0;stroke:none;stroke-linecap:round;stroke-miterlimit:4;stroke-dasharray:none;stroke-width:10.00599957;fill:#8d5fd3" />
    <path
       transform="matrix(0.999067,0.000000,0.000000,0.999067,-449.517439,-221.258403)"
       id="rect4755"
       d="m 568.05554,293.17203 10.569,0 0,10.56899 -10.569,0 z"
       style="opacity:1;stroke-linejoin:miter;stroke-opacity:1;fill-opacity:1;stroke-dashoffset:0;stroke:none;stroke-linecap:round;stroke-miterlimit:4;stroke-dasharray:none;stroke-width:10.00599957;fill:#8d5fd3" />
    <path
       transform="matrix(0.999067,0.000000,0.000000,0.999067,-449.517439,-221.258403)"
       id="rect4757"
       d="m 588.05554,293.17203 10.569,0 0,10.56899 -10.569,0 z"
       style="opacity:1;stroke-linejoin:miter;stroke-opacity:1;fill-opacity:1;stroke-dashoffset:0;stroke:none;stroke-linecap:round;stroke-miterlimit:4;stroke-dasharray:none;stroke-width:10.00599957;fill:#8d5fd3" />
    <path
       transform="matrix(0.999067,0.000000,0.000000,0.999067,-449.517439,-221.258403)"
       id="rect4759"
       d="m 608.05554,293.17203 10.569,0 0,10.56899 -10.569,0 z"
       style="opacity:1;stroke-linejoin:miter;stroke-opacity:1;fill-opacity:1;stroke-dashoffset:0;stroke:none;stroke-linecap:round;stroke-miterlimit:4;stroke-dasharray:none;stroke-width:10.00599957;fill:#8d5fd3" />
    <path
       transform="matrix(0.999067,0.000000,0.000000,0.999067,-449.517439,-221.258403)"
       id="rect4761"
       d="m 628.05554,293.17203 10.569,0 0,10.56899 -10.569,0 z"
       style="opacity:1;stroke-linejoin:miter;stroke-opacity:1;fill-opacity:1;stroke-dashoffset:0;stroke:none;stroke-linecap:round;stroke-miterlimit:4;stroke-dasharray:none;stroke-width:10.00599957;fill:#8d5fd3" />
    <path
       transform="matrix(0.999067,0.000000,0.000000,0.999067,-449.517439,-221.258403)"
       id="rect4763"
       d="m 468.05557,313.17203 10.569,0 0,10.56899 -10.569,0 z"
       style="opacity:1;stroke-linejoin:miter;stroke-opacity:1;fill-opacity:1;stroke-dashoffset:0;stroke:none;stroke-linecap:round;stroke-miterlimit:4;stroke-dasharray:none;stroke-width:10.00599957;fill:#8d5fd3" />
    <path
       transform="matrix(0.999067,0.000000,0.000000,0.999067,-449.517439,-221.258403)"
       id="rect4765"
       d="m 488.05557,313.17203 10.569,0 0,10.56899 -10.569,0 z"
       style="opacity:1;stroke-linejoin:miter;stroke-opacity:1;fill-opacity:1;stroke-dashoffset:0;stroke:none;stroke-linecap:round;stroke-miterlimit:4;stroke-dasharray:none;stroke-width:10.00599957;fill:#8d5fd3" />
    <path
       transform="matrix(0.999067,0.000000,0.000000,0.999067,-449.517439,-221.258403)"
       id="rect4767"
       d="m 508.05557,313.17203 10.569,0 0,10.56899 -10.569,0 z"
       style="opacity:1;stroke-linejoin:miter;stroke-opacity:1;fill-opacity:1;stroke-dashoffset:0;stroke:none;stroke-linecap:round;stroke-miterlimit:4;stroke-dasharray:none;stroke-width:10.00599957;fill:#8d5fd3" />
    <path
       transform="matrix(0.999067,0.000000,0.000000,0.999067,-449.517439,-221.258403)"
       id="rect4769"
       d="m 528.05554,313.17203 10.569,0 0,10.56899 -10.569,0 z"
       style="opacity:1;stroke-linejoin:miter;stroke-opacity:1;fill-opacity:1;stroke-dashoffset:0;stroke:none;stroke-linecap:round;stroke-miterlimit:4;stroke-dasharray:none;stroke-width:10.00599957;fill:#8d5fd3" />
    <path
       transform="matrix(0.999067,0.000000,0.000000,0.999067,-449.517439,-221.258403)"
       id="rect4771"
       d="m 548.05554,313.17203 10.569,0 0,10.56899 -10.569,0 z"
       style="opacity:1;stroke-linejoin:miter;stroke-opacity:1;fill-opacity:1;stroke-dashoffset:0;stroke:none;stroke-linecap:round;stroke-miterlimit:4;stroke-dasharray:none;stroke-width:10.00599957;fill:#8d5fd3" />
    <path
       transform="matrix(0.999067,0.000000,0.000000,0.999067,-449.517439,-221.258403)"
       id="rect4773"
       d="m 568.05554,313.17203 10.569,0 0,10.56899 -10.569,0 z"
       style="opacity:1;stroke-linejoin:miter;stroke-opacity:1;fill-opacity:1;stroke-dashoffset:0;stroke:none;stroke-linecap:round;stroke-miterlimit:4;stroke-dasharray:none;stroke-width:10.00599957;fill:#8d5fd3" />
    <path
       transform="matrix(0.999067,0.000000,0.000000,0.999067,-449.517439,-221.258403)"
       id="rect4775"
       d="m 588.05554,313.17203 10.569,0 0,10.56899 -10.569,0 z"
       style="opacity:1;stroke-linejoin:miter;stroke-opacity:1;fill-opacity:1;stroke-dashoffset:0;stroke:none;stroke-linecap:round;stroke-miterlimit:4;stroke-dasharray:none;stroke-width:10.00599957;fill:#8d5fd3" />
    <path
       transform="matrix(0.999067,0.000000,0.000000,0.999067,-449.517439,-221.258403)"
       id="rect4777"
       d="m 608.05554,313.17203 10.569,0 0,10.56899 -10.569,0 z"
       style="opacity:1;stroke-linejoin:miter;stroke-opacity:1;fill-opacity:1;stroke-dashoffset:0;stroke:none;stroke-linecap:round;stroke-miterlimit:4;stroke-dasharray:none;stroke-width:10.00599957;fill:#8d5fd3" />
    <path
       transform="matrix(0.999067,0.000000,0.000000,0.999067,-449.517439,-221.258403)"
       id="rect4779"
       d="m 628.05554,313.17203 10.569,0 0,10.56899 -10.569,0 z"
       style="opacity:1;stroke-linejoin:miter;stroke-opacity:1;fill-opacity:1;stroke-dashoffset:0;stroke:none;stroke-linecap:round;stroke-miterlimit:4;stroke-dasharray:none;stroke-width:10.00599957;fill:#8d5fd3" />
    <path
       transform="matrix(0.999067,0.000000,0.000000,0.999067,-449.517439,-221.258403)"
       id="rect4781"
       d="m 468.05557,333.17203 10.569,0 0,10.56899 -10.569,0 z"
       style="opacity:1;stroke-linejoin:miter;stroke-opacity:1;fill-opacity:1;stroke-dashoffset:0;stroke:none;stroke-linecap:round;stroke-miterlimit:4;stroke-dasharray:none;stroke-width:10.00599957;fill:#8d5fd3" />
    <path
       transform="matrix(0.999067,0.000000,0.000000,0.999067,-449.517439,-221.258403)"
       id="rect4783"
       d="m 488.05557,333.17203 10.569,0 0,10.56899 -10.569,0 z"
       style="opacity:1;stroke-linejoin:miter;stroke-opacity:1;fill-opacity:1;stroke-dashoffset:0;stroke:none;stroke-linecap:round;stroke-miterlimit:4;stroke-dasharray:none;stroke-width:10.00599957;fill:#8d5fd3" />
    <path
       transform="matrix(0.999067,0.000000,0.000000,0.999067,-449.517439,-221.258403)"
       id="rect4785"
       d="m 508.05557,333.17203 10.569,0 0,10.56899 -10.569,0 z"
       style="opacity:1;stroke-linejoin:miter;stroke-opacity:1;fill-opacity:1;stroke-dashoffset:0;stroke:none;stroke-linecap:round;stroke-miterlimit:4;stroke-dasharray:none;stroke-width:10.00599957;fill:#8d5fd3" />
    <path
       transform="matrix(0.999067,0.000000,0.000000,0.999067,-449.517439,-221.258403)"
       id="rect4787"
       d="m 528.05554,333.17203 10.569,0 0,10.56899 -10.569,0 z"
       style="opacity:1;stroke-linejoin:miter;stroke-opacity:1;fill-opacity:1;stroke-dashoffset:0;stroke:none;stroke-linecap:round;stroke-miterlimit:4;stroke-dasharray:none;stroke-width:10.00599957;fill:#8d5fd3" />
    <path
       transform="matrix(0.999067,0.000000,0.000000,0.999067,-449.517439,-221.258403)"
       id="rect4789"
       d="m 548.05554,333.17203 10.569,0 0,10.56899 -10.569,0 z"
       style="opacity:1;stroke-linejoin:miter;stroke-opacity:1;fill-opacity:1;stroke-dashoffset:0;stroke:none;stroke-linecap:round;stroke-miterlimit:4;stroke-dasharray:none;stroke-width:10.00599957;fill:#8d5fd3" />
    <path
       transform="matrix(0.999067,0.000000,0.000000,0.999067,-449.517439,-221.258403)"
       id="rect4791"
       d="m 568.05554,333.17203 10.569,0 0,10.56899 -10.569,0 z"
       style="opacity:1;stroke-linejoin:miter;stroke-opacity:1;fill-opacity:1;stroke-dashoffset:0;stroke:none;stroke-linecap:round;stroke-miterlimit:4;stroke-dasharray:none;stroke-width:10.00599957;fill:#8d5fd3" />
    <path
       transform="matrix(0.999067,0.000000,0.000000,0.999067,-449.517439,-221.258403)"
       id="rect4793"
       d="m 588.05554,333.17203 10.569,0 0,10.56899 -10.569,0 z"
       style="opacity:1;stroke-linejoin:miter;stroke-opacity:1;fill-opacity:1;stroke-dashoffset:0;stroke:none;stroke-linecap:round;stroke-miterlimit:4;stroke-dasharray:none;stroke-width:10.00599957;fill:#8d5fd3" />
    <path
       transform="matrix(0.999067,0.000000,0.000000,0.999067,-449.517439,-221.258403)"
       id="rect4795"
       d="m 608.05554,333.17203 10.569,0 0,10.56899 -10.569,0 z"
       style="opacity:1;stroke-linejoin:miter;stroke-opacity:1;fill-opacity:1;stroke-dashoffset:0;stroke:none;stroke-linecap:round;stroke-miterlimit:4;stroke-dasharray:none;stroke-width:10.00599957;fill:#8d5fd3" />
    <path
       transform="matrix(0.999067,0.000000,0.000000,0.999067,-449.517439,-221.258403)"
       id="rect4797"
       d="m 628.05554,333.17203 10.569,0 0,10.56899 -10.569,0 z"
       style="opacity:1;stroke-linejoin:miter;stroke-opacity:1;fill-opacity:1;stroke-dashoffset:0;stroke:none;stroke-linecap:round;stroke-miterlimit:4;stroke-dasharray:none;stroke-width:10.00599957;fill:#8d5fd3" />
    <path
       transform="matrix(0.999067,0.000000,0.000000,0.999067,-449.517439,-221.258403)"
       id="rect4799"
       d="m 468.05557,353.17203 10.569,0 0,10.56899 -10.569,0 z"
       style="opacity:1;stroke-linejoin:miter;stroke-opacity:1;fill-opacity:1;stroke-dashoffset:0;stroke:none;stroke-linecap:round;stroke-miterlimit:4;stroke-dasharray:none;stroke-width:10.00599957;fill:#8d5fd3" />
    <path
       transform="matrix(0.999067,0.000000,0.000000,0.999067,-449.517439,-221.258403)"
       id="rect4801"
       d="m 488.05557,353.17203 10.569,0 0,10.56899 -10.569,0 z"
       style="opacity:1;stroke-linejoin:miter;stroke-opacity:1;fill-opacity:1;stroke-dashoffset:0;stroke:none;stroke-linecap:round;stroke-miterlimit:4;stroke-dasharray:none;stroke-width:10.00599957;fill:#8d5fd3" />
    <path
       transform="matrix(0.999067,0.000000,0.000000,0.999067,-449.517439,-221.258403)"
       id="rect4803"
       d="m 508.05557,353.17203 10.569,0 0,10.56899 -10.569,0 z"
       style="opacity:1;stroke-linejoin:miter;stroke-opacity:1;fill-opacity:1;stroke-dashoffset:0;stroke:none;stroke-linecap:round;stroke-miterlimit:4;stroke-dasharray:none;stroke-width:10.00599957;fill:#8d5fd3" />
    <path
       transform="matrix(0.999067,0.000000,0.000000,0.999067,-449.517439,-221.258403)"
       id="rect4805"
       d="m 528.05554,353.17203 10.569,0 0,10.56899 -10.569,0 z"
       style="opacity:1;stroke-linejoin:miter;stroke-opacity:1;fill-opacity:1;stroke-dashoffset:0;stroke:none;stroke-linecap:round;stroke-miterlimit:4;stroke-dasharray:none;stroke-width:10.00599957;fill:#8d5fd3" />
    <path
       transform="matrix(0.999067,0.000000,0.000000,0.999067,-449.517439,-221.258403)"
       id="rect4807"
       d="m 548.05554,353.17203 10.569,0 0,10.56899 -10.569,0 z"
       style="opacity:1;stroke-linejoin:miter;stroke-opacity:1;fill-opacity:1;stroke-dashoffset:0;stroke:none;stroke-linecap:round;stroke-miterlimit:4;stroke-dasharray:none;stroke-width:10.00599957;fill:#8d5fd3" />
    <path
       transform="matrix(0.999067,0.000000,0.000000,0.999067,-449.517439,-221.258403)"
       id="rect4809"
       d="m 568.05554,353.17203 10.569,0 0,10.56899 -10.569,0 z"
       style="opacity:1;stroke-linejoin:miter;stroke-opacity:1;fill-opacity:1;stroke-dashoffset:0;stroke:none;stroke-linecap:round;stroke-miterlimit:4;stroke-dasharray:none;stroke-width:10.00599957;fill:#8d5fd3" />
    <path
       transform="matrix(0.999067,0.000000,0.000000,0.999067,-449.517439,-221.258403)"
       id="rect4811"
       d="m 588.05554,353.17203 10.569,0 0,10.56899 -10.569,0 z"
       style="opacity:1;stroke-linejoin:miter;stroke-opacity:1;fill-opacity:1;stroke-dashoffset:0;stroke:none;stroke-linecap:round;stroke-miterlimit:4;stroke-dasharray:none;stroke-width:10.00599957;fill:#8d5fd3" />
    <path
       transform="matrix(0.999067,0.000000,0.000000,0.999067,-449.517439,-221.258403)"
       id="rect4813"
       d="m 608.05554,353.17203 10.569,0 0,10.56899 -10.569,0 z"
       style="opacity:1;stroke-linejoin:miter;stroke-opacity:1;fill-opacity:1;stroke-dashoffset:0;stroke:none;stroke-linecap:round;stroke-miterlimit:4;stroke-dasharray:none;stroke-width:10.00599957;fill:#8d5fd3" />
    <path
       transform="matrix(0.999067,0.000000,0.000000,0.999067,-449.517439,-221.258403)"
       id="rect4815"
       d="m 628.05554,353.17203 10.569,0 0,10.56899 -10.569,0 z"
       style="opacity:1;stroke-linejoin:miter;stroke-opacity:1;fill-opacity:1;stroke-dashoffset:0;stroke:none;stroke-linecap:round;stroke-miterlimit:4;stroke-dasharray:none;stroke-width:10.00599957;fill:#8d5fd3" />
    <path
       transform="matrix(0.999067,0.000000,0.000000,0.999067,-449.517439,-221.258403)"
       id="rect4817"
       d="m 468.05557,373.17203 181.1828,0 0,10.56899 -181.1828,0 z"
       style="opacity:1;stroke-linejoin:miter;stroke-opacity:1;fill-opacity:1;stroke-dashoffset:0;stroke:none;stroke-linecap:round;stroke-miterlimit:4;stroke-dasharray:none;stroke-width:10.00599957;fill:#afdde9" />
  </g>
</svg>
